<svg width="432" height="145" viewBox="0 0 432 145" fill="none" xmlns="http://www.w3.org/2000/svg">
<path fill-rule="evenodd" clip-rule="evenodd" d="M51.5999 2.3999C37.6334 2.3999 26.192 5.82323 17.2018 12.5985C8.30471 19.3035 3.7999 29.3754 3.7999 42.9999C3.7999 44.9592 3.86461 46.6462 3.9918 48.0651C4.14607 48.9116 4.27327 49.5507 4.37343 49.9999H26.3999V42.7999C26.3999 35.6903 28.3177 30.126 32.3053 26.2805C36.4267 22.3013 42.521 20.3999 50.3999 20.3999C57.7484 20.3999 63.3386 22.304 66.9332 26.3198C70.5734 30.1063 72.3999 34.6849 72.3999 39.9999C72.3999 46.7376 70.4706 52.8713 66.6191 58.3734C63.7672 62.4475 60.2439 66.307 56.0567 69.954L56.0548 69.9556C52.0295 73.4442 46.5419 77.7934 39.5999 82.9999L39.5936 83.0046C31.4774 88.992 24.9061 94.2366 19.8718 98.7406C15.0215 103.199 10.8872 108.447 7.47047 114.492L7.46577 114.5C4.09375 120.336 2.3999 126.895 2.3999 134.2V140H95.5999V120.2H28.9819L29.7055 118.753C30.7054 116.753 32.3863 114.599 34.6928 112.293C36.736 110.25 39.4408 107.953 42.7948 105.404C46.1369 102.864 49.5457 100.391 53.0211 97.9843C61.8044 91.5962 68.9783 86.0156 74.5491 81.2406C80.0596 76.5173 84.79 70.8044 88.738 64.0929L88.741 64.0878C92.7781 57.3158 94.7999 49.8273 94.7999 41.5999C94.7999 35.3435 93.4974 29.2816 90.8861 23.406L90.8828 23.3986C88.3106 17.4824 83.7974 12.4949 77.273 8.44979L77.2653 8.44497C70.9452 4.44654 62.4188 2.3999 51.5999 2.3999ZM15.9981 11.0013C25.4078 3.9099 37.2997 0.399902 51.5999 0.399902C62.6458 0.399902 71.5849 2.48587 78.331 6.7526C85.1364 10.9728 89.9546 16.2499 92.7153 22.5974C95.4362 28.7207 96.7999 35.0576 96.7999 41.5999C96.7999 50.1713 94.689 58.0151 90.4607 65.1089C86.4088 71.9965 81.5396 77.8829 75.8507 82.7592C70.2235 87.5825 63.0005 93.1996 54.1881 99.6086L54.1787 99.6155L54.1691 99.6221C50.7145 102.014 47.3265 104.472 44.005 106.996C40.6923 109.514 38.0638 111.75 36.107 113.707C34.4771 115.337 33.2264 116.834 32.3331 118.2H97.5999V142H0.399902V134.2C0.399902 126.574 2.17183 119.667 5.73137 113.504C9.24645 107.286 13.51 101.87 18.5233 97.2636L18.5331 97.2547C23.6308 92.6936 30.2567 87.4073 38.4029 81.3977C45.326 76.2053 50.7705 71.8887 54.7446 68.4445C58.8234 64.8919 62.2329 61.1518 64.9807 57.2264C68.5959 52.0618 70.3999 46.3288 70.3999 39.9999C70.3999 35.1879 68.7641 31.1044 65.4796 27.6935L65.4665 27.68L65.454 27.6659C62.3814 24.2247 57.4428 22.3999 50.3999 22.3999C42.8121 22.3999 37.3065 24.2319 33.6945 27.7193C30.2158 31.0738 28.3999 36.0431 28.3999 42.7999V51.9999H2.87914L2.65122 51.3161C2.49083 50.835 2.27902 49.8252 2.01603 48.3788L2.00805 48.3349L2.00401 48.2904C1.86717 46.7852 1.7999 45.0202 1.7999 42.9999C1.7999 28.891 6.49509 18.1629 15.9981 11.0013ZM159.733 2.3999C149.331 2.3999 140.793 4.50652 134.057 8.65156C127.377 12.7625 122.159 19.874 118.475 30.1345C114.93 40.2471 113.133 54.3168 113.133 72.3999C113.133 90.48 114.929 104.618 118.475 114.866C122.158 124.989 127.374 132.036 134.057 136.148C140.793 140.293 149.331 142.4 159.733 142.4C169.998 142.4 178.471 140.294 185.209 136.148C191.89 132.037 197.108 124.924 200.792 114.662C204.469 104.417 206.333 90.3478 206.333 72.3999C206.333 54.452 204.469 40.3827 200.792 30.1378C197.108 19.8755 191.89 12.7629 185.209 8.65156C178.471 4.50539 169.998 2.3999 159.733 2.3999ZM133.009 6.94825C140.14 2.55996 149.068 0.399902 159.733 0.399902C170.267 0.399902 179.128 2.56108 186.257 6.94825C193.442 11.3702 198.891 18.9243 202.674 29.462C206.463 40.0171 208.333 54.3478 208.333 72.3999C208.333 90.452 206.463 104.783 202.674 115.338C198.891 125.875 193.442 133.43 186.257 137.852C179.128 142.239 170.267 144.4 159.733 144.4C149.068 144.4 140.14 142.24 133.009 137.852C125.827 133.432 120.377 125.948 116.593 115.542L116.59 115.534L116.588 115.527C112.935 104.976 111.133 90.5822 111.133 72.3999C111.133 54.2186 112.935 39.8895 116.589 29.469L116.592 29.462C120.374 18.9243 125.823 11.3702 133.009 6.94825ZM381.998 2.3999C372.381 2.3999 364.279 4.11284 357.653 7.4908L357.646 7.49432C351.128 10.7529 346.212 15.1636 342.854 20.7173C339.489 26.2829 337.798 32.5682 337.798 39.5999C337.798 46.1013 339.291 51.9935 342.263 57.2978C345.358 62.45 349.877 66.5912 355.861 69.7133L357.791 70.7201L355.77 71.5284C348.585 74.4021 343.263 78.4885 339.729 83.7569C336.195 89.0263 334.398 95.5551 334.398 103.4C334.398 115.014 338.3 124.405 346.077 131.665C353.818 138.759 365.726 142.4 381.998 142.4C398.136 142.4 409.98 138.76 417.722 131.663C425.632 124.401 429.598 115.01 429.598 103.4C429.598 95.5568 427.786 89.0293 424.22 83.7604C420.654 78.4919 415.282 74.4043 408.03 71.5295L405.998 70.7242L407.936 69.7133C413.922 66.5902 418.371 62.4495 421.331 57.3014L421.335 57.2947C424.441 51.9895 425.998 46.0987 425.998 39.5999C425.998 32.5682 424.308 26.2829 420.943 20.7173L420.938 20.71L420.934 20.7025C417.713 15.1634 412.807 10.7569 406.158 7.49781L406.151 7.49436L406.144 7.4908C399.516 4.11195 391.48 2.3999 381.998 2.3999ZM356.748 5.70679C363.722 2.1529 372.151 0.399902 381.998 0.399902C391.713 0.399902 400.075 2.15339 407.046 5.70554C413.991 9.11153 419.214 13.7683 422.659 19.6906C426.224 25.5897 427.998 32.2349 427.998 39.5999C427.998 46.4337 426.356 52.6757 423.062 58.3034C420.204 63.2718 416.068 67.3271 410.687 70.4773C417.292 73.4192 422.374 77.4651 425.876 82.6394C429.71 88.3038 431.598 95.243 431.598 103.4C431.598 115.523 427.431 125.465 419.075 133.137C410.817 140.706 398.393 144.4 381.998 144.4C365.473 144.4 352.982 140.708 344.723 133.137L344.716 133.131C336.495 125.458 332.398 115.518 332.398 103.4C332.398 95.2447 334.269 88.3069 338.068 82.6429C341.537 77.4705 346.572 73.4246 353.116 70.4821C347.721 67.3322 343.519 63.2783 340.541 58.3144L340.533 58.3019L340.526 58.2892C337.37 52.6635 335.798 46.4266 335.798 39.5999C335.798 32.2316 337.575 25.5836 341.143 19.6825C344.717 13.7704 349.934 9.11473 356.748 5.70679ZM278.401 2.7999H291.266V120.4H321.866V142H231.866V120.4H265.266V35.1999H231.666V18.5027L232.557 18.4058C238.594 17.7496 245.987 15.9721 254.749 13.0512L254.754 13.0498C263.636 10.1332 271.439 6.75853 278.171 2.93061L278.401 2.7999ZM278.929 4.7999C272.115 8.6506 264.263 12.032 255.381 14.9489C246.961 17.7553 239.719 19.5422 233.666 20.2904V33.1999H267.266V122.4H233.866V140H319.866V122.4H289.266V4.7999H278.929ZM365.705 25.4796C369.673 21.6531 375.15 19.7999 381.998 19.7999C388.72 19.7999 394.128 21.6567 398.092 25.4801C402.065 29.3109 403.998 34.5962 403.998 41.1999C403.998 47.8019 402.066 53.0306 398.079 56.7327C394.113 60.4155 388.71 62.1999 381.998 62.1999C375.159 62.1999 369.688 60.4188 365.718 56.7327L365.711 56.7265L365.705 56.7202C361.858 53.0158 359.998 47.7913 359.998 41.1999C359.998 34.4822 361.854 29.1878 365.705 25.4796ZM381.998 21.7999C375.514 21.7999 370.591 23.5466 367.092 26.9198C363.743 30.1449 361.998 34.8509 361.998 41.1999C361.998 47.4043 363.737 52.0444 367.085 55.273C370.582 58.5163 375.508 60.1999 381.998 60.1999C388.353 60.1999 393.217 58.5176 396.718 55.2671C400.198 52.0358 401.998 47.3979 401.998 41.1999C401.998 35.0036 400.198 30.2889 396.704 26.9198C393.202 23.5431 388.343 21.7999 381.998 21.7999ZM144.826 25.2928C148.398 21.7203 153.417 19.9999 159.733 19.9999C166.055 19.9999 171.076 21.7912 174.646 25.4994C178.171 29.0274 180.497 34.2436 181.717 41.0227C182.932 47.7728 183.533 56.706 183.533 67.7999V77.5999C183.533 88.5613 182.932 97.4276 181.717 104.177L181.716 104.181C180.494 110.835 178.164 115.983 174.64 119.507C171.067 123.079 166.048 124.8 159.733 124.8C153.417 124.8 148.398 123.079 144.826 119.507L144.819 119.5L144.812 119.493C141.296 115.837 138.97 110.562 137.749 103.777C136.534 97.027 135.933 88.0938 135.933 76.9999V67.1999C135.933 56.2412 136.533 47.4408 137.749 40.8225C138.97 34.0392 141.298 28.8208 144.826 25.2928ZM159.733 21.9999C153.781 21.9999 149.334 23.6128 146.24 26.707C143.101 29.8456 140.896 34.6271 139.717 41.1771L139.716 41.1806C138.532 47.6286 137.933 56.2938 137.933 67.1999V76.9999C137.933 88.0394 138.532 96.8394 139.717 103.423C140.895 109.967 143.099 114.822 146.247 118.1C149.341 121.189 153.786 122.8 159.733 122.8C165.684 122.8 170.131 121.187 173.226 118.093C176.367 114.951 178.571 110.233 179.749 103.822C180.934 97.2387 181.533 88.505 181.533 77.5999V67.7999C181.533 56.7604 180.934 47.9604 179.749 41.3771C178.57 34.8271 176.364 30.0456 173.226 26.907L173.219 26.9001L173.212 26.893C170.116 23.6729 165.673 21.9999 159.733 21.9999ZM363.521 85.6638C367.899 81.5727 374.109 79.5999 381.998 79.5999C389.759 79.5999 395.9 81.5752 400.274 85.663C404.659 89.6266 406.798 95.1877 406.798 102.2C406.798 109.216 404.657 114.837 400.281 118.93C395.907 123.023 389.763 125 381.998 125C374.114 125 367.906 123.096 363.528 119.142L363.522 119.136L363.515 119.13C359.136 115.033 356.998 109.343 356.998 102.2C356.998 95.1882 359.137 89.6274 363.521 85.6638ZM381.998 81.5999C374.424 81.5999 368.771 83.4919 364.882 87.1302L364.875 87.1362L364.869 87.142C360.991 90.6447 358.998 95.6152 358.998 102.2C358.998 108.92 360.992 114.028 364.875 117.664C368.764 121.172 374.421 123 381.998 123C389.433 123 395.023 121.111 398.915 117.47C402.806 113.83 404.798 108.783 404.798 102.2C404.798 95.6152 402.806 90.6447 398.928 87.142L398.922 87.1362L398.915 87.1302C395.023 83.4892 389.433 81.5999 381.998 81.5999Z" fill="url(#paint0_linear)"/>
<defs>
<linearGradient id="paint0_linear" x1="-0.0134877" y1="140.871" x2="450.6" y2="-2.55976" gradientUnits="userSpaceOnUse">
<stop stop-color="#852A80"/>
<stop offset="0.885417" stop-color="#009FE3"/>
</linearGradient>
</defs>
</svg>
