<?xml version="1.0" standalone="no"?>
<!DOCTYPE svg PUBLIC "-//W3C//DTD SVG 20010904//EN"
 "http://www.w3.org/TR/2001/REC-SVG-20010904/DTD/svg10.dtd">
<svg version="1.0" xmlns="http://www.w3.org/2000/svg"
 width="1457.000000pt" height="1457.000000pt" viewBox="0 0 1457.000000 1457.000000"
 preserveAspectRatio="xMidYMid meet">
<metadata>
Created by potrace 1.11, written by Peter Selinger 2001-2013
</metadata>
<g transform="translate(0.000000,1457.000000) scale(0.100000,-0.100000)"
fill="#000000" stroke="none">
<path d="M2177 12475 c-1149 -1149 -2099 -2107 -2113 -2127 -13 -20 -24 -43
-24 -50 0 -8 -5 -19 -12 -26 -7 -7 -9 -12 -5 -12 3 0 1 -12 -5 -27 -8 -21 -12
-361 -12 -1250 l-1 -1223 1222 0 1223 0 1 23 c0 12 0 549 0 1192 0 728 4 1182
10 1201 5 17 21 42 35 55 l26 24 706 3 c693 2 708 2 740 -18 18 -11 37 -32 43
-48 8 -19 11 -388 12 -1229 l0 -1203 1199 0 c1321 0 1240 4 1274 -62 15 -28
16 -102 16 -723 0 -617 -2 -696 -16 -723 -34 -66 47 -62 -1274 -62 l-1199 0 0
-1203 c0 -1325 4 -1246 -63 -1279 -32 -17 -88 -18 -725 -18 -528 0 -696 3
-714 13 -13 6 -34 25 -45 40 l-21 28 -2 1202 c-1 661 -2 1205 -3 1210 0 4
-550 7 -1223 7 l-1222 0 1 -2927 c1 -2718 2 -2931 18 -2973 55 -147 160 -240
307 -273 42 -10 1144 -12 4964 -11 l4910 1 58 21 c32 12 72 31 90 43 18 12
973 962 2122 2110 l2090 2089 0 5032 c-1 4745 -2 5036 -18 5084 -21 61 -84
128 -147 157 l-45 21 -5045 1 -5045 1 -2088 -2091z m5666 -2227 c29 -15 30
-16 126 -148 138 -188 150 -205 158 -215 5 -5 58 -77 118 -160 60 -82 113
-154 117 -160 26 -33 71 -93 223 -301 237 -324 438 -597 447 -609 4 -5 18 -23
31 -40 13 -16 77 -104 142 -194 l119 -163 19 23 c11 13 128 172 261 352 132
181 296 404 364 495 68 92 148 201 178 242 68 94 129 177 274 374 63 86 126
171 140 190 14 19 68 93 120 164 52 71 107 137 122 146 23 14 112 16 886 16
824 0 860 -1 880 -19 12 -10 22 -29 22 -42 0 -16 -107 -169 -305 -439 -168
-228 -311 -424 -319 -435 -32 -43 -126 -171 -133 -180 -5 -5 -51 -68 -103
-140 -52 -71 -97 -132 -100 -135 -3 -3 -35 -45 -70 -95 -36 -49 -105 -145
-155 -211 -49 -67 -128 -174 -175 -238 -47 -64 -134 -183 -195 -265 -60 -82
-168 -229 -240 -326 -166 -226 -247 -336 -374 -508 -56 -75 -110 -152 -121
-170 -37 -60 -30 -82 88 -239 59 -80 115 -156 125 -169 9 -13 87 -118 173
-234 85 -115 162 -219 170 -230 8 -11 53 -72 100 -135 47 -63 93 -126 102
-139 9 -13 38 -51 63 -85 25 -33 112 -151 194 -261 168 -229 233 -315 348
-470 45 -61 197 -265 337 -455 140 -190 277 -374 303 -410 27 -36 55 -74 63
-85 8 -11 62 -83 119 -160 134 -179 142 -206 83 -265 l-29 -30 -824 0 c-504 0
-833 4 -848 9 -30 11 -41 26 -277 346 -96 130 -246 332 -332 449 -86 116 -168
227 -182 246 -39 54 -281 381 -311 420 -27 35 -48 63 -299 403 -76 104 -142
185 -146 180 -4 -4 -61 -80 -126 -168 -65 -88 -165 -223 -222 -300 -57 -77
-111 -150 -120 -163 -9 -13 -46 -63 -82 -111 -36 -47 -101 -136 -146 -196 -45
-61 -161 -218 -259 -350 -98 -132 -205 -277 -239 -323 -208 -282 -314 -418
-336 -429 -20 -10 -201 -12 -847 -10 l-823 2 -25 25 c-39 39 -47 80 -24 126
10 22 73 111 139 199 66 88 159 212 205 275 47 63 135 183 197 267 62 83 242
326 401 540 158 213 377 510 487 658 111 149 239 322 285 385 46 63 175 237
285 385 111 149 224 302 251 340 75 104 74 107 -97 340 -76 105 -142 195 -147
200 -4 6 -51 69 -103 140 -53 72 -124 168 -158 215 -35 47 -159 216 -276 375
-117 160 -243 331 -280 380 -62 84 -251 341 -400 545 -126 173 -365 497 -482
655 -65 88 -154 210 -198 270 -45 61 -88 118 -96 128 -26 32 -28 73 -5 96 l21
21 861 0 c633 0 866 -3 882 -12z"/>
</g>
</svg>
